<svg width="141" height="48" viewBox="0 0 141 48" fill="none" xmlns="http://www.w3.org/2000/svg">
<rect width="141" height="48" rx="4" fill="#A53DFF"/>
<path d="M29.232 18.28C30.192 18.28 31.0347 18.4453 31.76 18.776C32.4853 19.1067 33.104 19.5973 33.616 20.248L32.384 21.672C31.9467 21.1173 31.4667 20.712 30.944 20.456C30.432 20.1893 29.8347 20.056 29.152 20.056C28.704 20.056 28.3307 20.1147 28.032 20.232C27.744 20.3493 27.5307 20.504 27.392 20.696C27.264 20.888 27.2 21.1013 27.2 21.336C27.2 21.624 27.312 21.8693 27.536 22.072C27.76 22.264 28.144 22.424 28.688 22.552L30.656 23C31.7013 23.2347 32.448 23.5867 32.896 24.056C33.3547 24.5147 33.584 25.112 33.584 25.848C33.584 26.5413 33.4027 27.1387 33.04 27.64C32.6773 28.1307 32.1707 28.5093 31.52 28.776C30.8693 29.032 30.1227 29.16 29.28 29.16C28.544 29.16 27.8667 29.0747 27.248 28.904C26.64 28.7227 26.096 28.4773 25.616 28.168C25.136 27.8587 24.736 27.5013 24.416 27.096L25.664 25.608C25.9093 25.9493 26.2133 26.2533 26.576 26.52C26.9387 26.7867 27.3493 27 27.808 27.16C28.2773 27.3093 28.768 27.384 29.28 27.384C29.7173 27.384 30.0853 27.336 30.384 27.24C30.6933 27.1333 30.9227 26.9893 31.072 26.808C31.232 26.616 31.312 26.3867 31.312 26.12C31.312 25.8427 31.216 25.608 31.024 25.416C30.8427 25.2133 30.5013 25.0587 30 24.952L27.856 24.472C27.2373 24.3227 26.704 24.1307 26.256 23.896C25.8187 23.6507 25.4827 23.3413 25.248 22.968C25.024 22.584 24.912 22.1307 24.912 21.608C24.912 20.9787 25.0827 20.4133 25.424 19.912C25.7653 19.4107 26.256 19.016 26.896 18.728C27.5467 18.4293 28.3253 18.28 29.232 18.28ZM38.186 29.16C37.6527 29.16 37.1727 29.064 36.746 28.872C36.3193 28.68 35.978 28.376 35.722 27.96C35.4767 27.5333 35.354 26.984 35.354 26.312V21H37.546V25.784C37.546 26.4027 37.674 26.8347 37.93 27.08C38.186 27.3147 38.554 27.432 39.034 27.432C39.258 27.432 39.4767 27.3947 39.69 27.32C39.9033 27.2347 40.09 27.1067 40.25 26.936C40.4207 26.7653 40.554 26.5467 40.65 26.28C40.746 26.0027 40.794 25.6773 40.794 25.304V21H42.986V29H41.034L40.954 27.608C40.6873 28.1413 40.3193 28.536 39.85 28.792C39.3913 29.0373 38.8367 29.16 38.186 29.16ZM49.9966 29.16C49.506 29.16 49.058 29.0587 48.6526 28.856C48.258 28.6427 47.9273 28.3547 47.6606 27.992C47.4046 27.6187 47.2286 27.2027 47.1326 26.744L47.3566 26.456L47.2286 29H45.2926V17.496H47.4846V23.256L47.2766 22.92C47.4473 22.3227 47.7726 21.8267 48.2526 21.432C48.7326 21.0373 49.3353 20.84 50.0606 20.84C50.69 20.84 51.2606 21.0053 51.7726 21.336C52.2846 21.6667 52.6846 22.1413 52.9726 22.76C53.2713 23.3787 53.4206 24.1307 53.4206 25.016C53.4206 25.88 53.2713 26.6213 52.9726 27.24C52.6846 27.8587 52.2793 28.3333 51.7566 28.664C51.2446 28.9947 50.658 29.16 49.9966 29.16ZM49.3406 27.48C49.9273 27.48 50.386 27.272 50.7166 26.856C51.058 26.4293 51.2286 25.8107 51.2286 25C51.2286 24.1893 51.0633 23.576 50.7326 23.16C50.402 22.7333 49.9433 22.52 49.3566 22.52C48.9726 22.52 48.642 22.6213 48.3646 22.824C48.0873 23.0267 47.8686 23.3147 47.7086 23.688C47.5593 24.0613 47.4846 24.504 47.4846 25.016C47.4846 25.5387 47.5593 25.9867 47.7086 26.36C47.8686 26.7227 48.0873 27 48.3646 27.192C48.6526 27.384 48.978 27.48 49.3406 27.48ZM55.3239 29V21H57.2919L57.3719 22.44C57.6385 21.9067 58.0012 21.5067 58.4599 21.24C58.9292 20.9733 59.4465 20.84 60.0119 20.84C60.5879 20.84 61.1052 20.9733 61.5639 21.24C62.0332 21.5067 62.3852 21.9013 62.6199 22.424C62.7905 22.072 63.0199 21.7787 63.3079 21.544C63.5959 21.3093 63.9159 21.1333 64.2679 21.016C64.6199 20.8987 64.9772 20.84 65.3399 20.84C65.8625 20.84 66.3372 20.9467 66.7639 21.16C67.2012 21.3733 67.5479 21.6933 67.8039 22.12C68.0599 22.5467 68.1879 23.0907 68.1879 23.752V29H65.9959V24.184C65.9959 23.5973 65.8679 23.1813 65.6119 22.936C65.3559 22.6907 65.0252 22.568 64.6199 22.568C64.2999 22.568 64.0012 22.648 63.7239 22.808C63.4572 22.968 63.2439 23.208 63.0839 23.528C62.9345 23.8373 62.8599 24.2267 62.8599 24.696V29H60.6679V24.184C60.6679 23.5973 60.5345 23.1813 60.2679 22.936C60.0119 22.6907 59.6812 22.568 59.2759 22.568C58.9985 22.568 58.7212 22.6427 58.4439 22.792C58.1772 22.9413 57.9532 23.176 57.7719 23.496C57.6012 23.816 57.5159 24.2373 57.5159 24.76V29H55.3239ZM71.5529 19.848C71.0942 19.848 70.7529 19.752 70.5289 19.56C70.3049 19.3573 70.1929 19.064 70.1929 18.68C70.1929 18.2853 70.3049 17.992 70.5289 17.8C70.7529 17.5973 71.0942 17.496 71.5529 17.496C72.0115 17.496 72.3529 17.5973 72.5769 17.8C72.8009 17.992 72.9129 18.2853 72.9129 18.68C72.9129 19.064 72.8009 19.3573 72.5769 19.56C72.3529 19.752 72.0115 19.848 71.5529 19.848ZM72.6409 21V29H70.4489V21H72.6409ZM77.7965 18.552V26.392C77.7965 26.776 77.8925 27.0587 78.0845 27.24C78.2872 27.4107 78.5592 27.496 78.9005 27.496C79.1672 27.496 79.4018 27.4587 79.6045 27.384C79.8072 27.2987 79.9885 27.1867 80.1485 27.048L80.5005 28.504C80.2445 28.7067 79.9245 28.8667 79.5405 28.984C79.1565 29.1013 78.7512 29.16 78.3245 29.16C77.7912 29.16 77.3165 29.08 76.9005 28.92C76.4952 28.76 76.1752 28.504 75.9405 28.152C75.7165 27.8 75.6045 27.3307 75.6045 26.744V19.16L77.7965 18.552ZM80.3565 21V22.632H74.1325V21H80.3565Z" fill="white"/>
<path d="M113.34 21.3201L99.34 14.3201C98.7875 14.0451 98.1636 13.9472 97.5534 14.0398C96.9433 14.1323 96.3765 14.4108 95.9303 14.8372C95.4842 15.2637 95.1805 15.8173 95.0605 16.4227C94.9405 17.0281 95.0102 17.6558 95.26 18.2201L97.66 23.5901C97.7145 23.72 97.7425 23.8593 97.7425 24.0001C97.7425 24.1409 97.7145 24.2803 97.66 24.4101L95.26 29.7801C95.0567 30.2368 94.9708 30.7371 95.01 31.2355C95.0492 31.7339 95.2123 32.2145 95.4846 32.6338C95.7568 33.0531 96.1295 33.3977 96.5688 33.6363C97.0081 33.875 97.5001 34 98 34.0001C98.4682 33.9955 98.9295 33.8861 99.35 33.6801L113.35 26.6801C113.847 26.4303 114.264 26.0474 114.556 25.5742C114.847 25.101 115.002 24.556 115.002 24.0001C115.002 23.4442 114.847 22.8993 114.556 22.4261C114.264 21.9528 113.847 21.5699 113.35 21.3201H113.34ZM112.45 24.8901L98.45 31.8901C98.2662 31.9784 98.0597 32.0084 97.8584 31.976C97.657 31.9436 97.4704 31.8504 97.3235 31.709C97.1766 31.5675 97.0765 31.3845 97.0365 31.1846C96.9966 30.9846 97.0187 30.7772 97.1 30.5901L99.49 25.2201C99.5209 25.1484 99.5477 25.075 99.57 25.0001H106.46C106.725 25.0001 106.98 24.8948 107.167 24.7072C107.355 24.5197 107.46 24.2653 107.46 24.0001C107.46 23.7349 107.355 23.4806 107.167 23.293C106.98 23.1055 106.725 23.0001 106.46 23.0001H99.57C99.5477 22.9253 99.5209 22.8518 99.49 22.7801L97.1 17.4101C97.0187 17.2231 96.9966 17.0157 97.0365 16.8157C97.0765 16.6157 97.1766 16.4327 97.3235 16.2913C97.4704 16.1498 97.657 16.0567 97.8584 16.0243C98.0597 15.9919 98.2662 16.0219 98.45 16.1101L112.45 23.1101C112.614 23.194 112.751 23.3215 112.847 23.4786C112.943 23.6356 112.994 23.8161 112.994 24.0001C112.994 24.1842 112.943 24.3647 112.847 24.5217C112.751 24.6787 112.614 24.8062 112.45 24.8901Z" fill="white"/>
</svg>
