<svg width="155" height="16" viewBox="0 0 155 16" fill="none" xmlns="http://www.w3.org/2000/svg">
<path d="M3.084 10.224H8.652V12H0.876V1.44H3.084V10.224ZM13.8328 12.16C12.9901 12.16 12.2541 11.9947 11.6248 11.664C11.0061 11.3333 10.5261 10.8587 10.1848 10.24C9.84342 9.62133 9.67275 8.87467 9.67275 8C9.67275 7.12533 9.84342 6.37867 10.1848 5.76C10.5261 5.14133 11.0008 4.66667 11.6088 4.336C12.2274 4.00533 12.9314 3.84 13.7208 3.84C14.5314 3.84 15.2194 4.00533 15.7848 4.336C16.3501 4.656 16.7821 5.09867 17.0808 5.664C17.3794 6.21867 17.5288 6.85333 17.5288 7.568C17.5288 7.78133 17.5234 7.984 17.5128 8.176C17.5021 8.368 17.4861 8.53867 17.4648 8.688H11.0807V7.168H16.5048L15.4488 7.552C15.4488 6.88 15.2941 6.36267 14.9848 6C14.6861 5.63733 14.2594 5.456 13.7048 5.456C13.2994 5.456 12.9474 5.552 12.6488 5.744C12.3608 5.936 12.1421 6.224 11.9928 6.608C11.8434 6.98133 11.7688 7.456 11.7688 8.032C11.7688 8.59733 11.8488 9.06667 12.0088 9.44C12.1794 9.80267 12.4141 10.0747 12.7128 10.256C13.0221 10.4373 13.3901 10.528 13.8168 10.528C14.2861 10.528 14.6648 10.4373 14.9528 10.256C15.2408 10.0747 15.4648 9.824 15.6248 9.504L17.3688 10.176C17.1981 10.592 16.9368 10.9493 16.5848 11.248C16.2434 11.5467 15.8328 11.776 15.3528 11.936C14.8834 12.0853 14.3768 12.16 13.8328 12.16ZM22.0778 1.552V9.392C22.0778 9.776 22.1738 10.0587 22.3658 10.24C22.5684 10.4107 22.8404 10.496 23.1818 10.496C23.4484 10.496 23.6831 10.4587 23.8858 10.384C24.0884 10.2987 24.2698 10.1867 24.4298 10.048L24.7818 11.504C24.5258 11.7067 24.2058 11.8667 23.8218 11.984C23.4378 12.1013 23.0324 12.16 22.6058 12.16C22.0724 12.16 21.5978 12.08 21.1818 11.92C20.7764 11.76 20.4564 11.504 20.2218 11.152C19.9978 10.8 19.8858 10.3307 19.8858 9.744V2.16L22.0778 1.552ZM24.6378 4V5.632H18.4138V4H24.6378ZM27.2568 0.896C27.5981 0.896 27.8808 0.981333 28.1048 1.152C28.3288 1.312 28.4994 1.53067 28.6168 1.808C28.7341 2.07467 28.7928 2.37333 28.7928 2.704C28.7928 3.14133 28.7021 3.56267 28.5208 3.968C28.3501 4.37333 28.1101 4.736 27.8008 5.056C27.4914 5.376 27.1394 5.62667 26.7448 5.808L25.8008 5.056C26.0888 4.93867 26.3501 4.79467 26.5848 4.624C26.8301 4.45333 27.0381 4.26133 27.2088 4.048C27.3794 3.83467 27.5021 3.616 27.5768 3.392L27.4968 3.344C27.4434 3.376 27.3794 3.408 27.3048 3.44C27.2301 3.46133 27.1234 3.472 26.9848 3.472C26.8141 3.472 26.6434 3.42933 26.4728 3.344C26.3021 3.248 26.1581 3.11467 26.0408 2.944C25.9234 2.76267 25.8648 2.53867 25.8648 2.272C25.8648 1.984 25.9288 1.73867 26.0568 1.536C26.1848 1.33333 26.3554 1.17867 26.5688 1.072C26.7821 0.954666 27.0114 0.896 27.2568 0.896ZM33.1176 12.16C32.307 12.16 31.5656 12.016 30.8936 11.728C30.2323 11.44 29.6936 11.0347 29.2776 10.512L30.5416 9.232C30.7976 9.616 31.139 9.93067 31.5656 10.176C31.9923 10.4213 32.499 10.544 33.0856 10.544C33.5016 10.544 33.8323 10.4853 34.0776 10.368C34.3336 10.24 34.4616 10.0427 34.4616 9.776C34.4616 9.60533 34.403 9.46133 34.2856 9.344C34.1683 9.216 33.9336 9.11467 33.5816 9.04L32.1736 8.752C31.2456 8.56 30.5843 8.272 30.1896 7.888C29.8056 7.49333 29.6136 6.98667 29.6136 6.368C29.6136 5.93067 29.7416 5.52 29.9976 5.136C30.2643 4.752 30.659 4.44267 31.1816 4.208C31.7043 3.96267 32.355 3.84 33.1336 3.84C33.9336 3.84 34.627 3.968 35.2136 4.224C35.811 4.46933 36.2803 4.83733 36.6216 5.328L35.3096 6.608C35.075 6.23467 34.7656 5.952 34.3816 5.76C34.0083 5.55733 33.6136 5.456 33.1976 5.456C32.899 5.456 32.643 5.488 32.4296 5.552C32.2163 5.616 32.0563 5.70667 31.9496 5.824C31.843 5.93067 31.7896 6.06933 31.7896 6.24C31.7896 6.41067 31.8643 6.56 32.0136 6.688C32.163 6.80533 32.435 6.90667 32.8296 6.992L34.4616 7.328C35.251 7.488 35.8163 7.76 36.1576 8.144C36.499 8.51733 36.6696 8.97067 36.6696 9.504C36.6696 10.016 36.531 10.4747 36.2536 10.88C35.987 11.2747 35.587 11.5893 35.0536 11.824C34.531 12.048 33.8856 12.16 33.1176 12.16ZM53.2845 4H55.6205L53.0605 12H50.5325L48.7885 6.56L47.1085 12H44.5805L42.0205 4H44.3565L45.9565 10.128L47.7325 4H49.9085L51.7005 10.128L53.2845 4ZM60.4094 3.84C61.22 3.84 61.9294 4.00533 62.5374 4.336C63.156 4.66667 63.636 5.14133 63.9774 5.76C64.3294 6.37867 64.5054 7.12533 64.5054 8C64.5054 8.864 64.3294 9.61067 63.9774 10.24C63.636 10.8587 63.156 11.3333 62.5374 11.664C61.9294 11.9947 61.22 12.16 60.4094 12.16C59.6094 12.16 58.9 11.9947 58.2814 11.664C57.6627 11.3333 57.1774 10.8587 56.8254 10.24C56.484 9.61067 56.3134 8.864 56.3134 8C56.3134 7.12533 56.484 6.37867 56.8254 5.76C57.1774 5.14133 57.6627 4.66667 58.2814 4.336C58.9 4.00533 59.6094 3.84 60.4094 3.84ZM60.4094 5.472C60.004 5.472 59.6574 5.568 59.3694 5.76C59.092 5.94133 58.8787 6.21867 58.7294 6.592C58.58 6.96533 58.5054 7.43467 58.5054 8C58.5054 8.56533 58.58 9.03467 58.7294 9.408C58.8787 9.78133 59.092 10.064 59.3694 10.256C59.6574 10.4373 60.004 10.528 60.4094 10.528C60.804 10.528 61.14 10.4373 61.4174 10.256C61.7054 10.064 61.924 9.78133 62.0734 9.408C62.2227 9.03467 62.2974 8.56533 62.2974 8C62.2974 7.43467 62.2227 6.96533 62.0734 6.592C61.924 6.21867 61.7054 5.94133 61.4174 5.76C61.14 5.568 60.804 5.472 60.4094 5.472ZM66.3395 12V4H68.2435L68.3875 5.568C68.6008 5.01333 68.9102 4.58667 69.3155 4.288C69.7315 3.98933 70.2488 3.84 70.8675 3.84C71.0488 3.84 71.2142 3.856 71.3635 3.888C71.5128 3.92 71.6355 3.96267 71.7315 4.016L71.4755 5.856C71.3688 5.81333 71.2355 5.78133 71.0755 5.76C70.9262 5.73867 70.7288 5.728 70.4835 5.728C70.1635 5.728 69.8542 5.808 69.5555 5.968C69.2568 6.11733 69.0115 6.352 68.8195 6.672C68.6275 6.98133 68.5315 7.376 68.5315 7.856V12H66.3395ZM81.2335 4L77.5375 7.856L77.1055 8.064L74.7055 10.64L74.6735 8.304L78.7375 4H81.2335ZM75.2815 0.495999V12H73.0895V0.495999H75.2815ZM77.8415 6.544L81.4255 12H78.9455L76.3375 7.824L77.8415 6.544ZM95.5718 1.44V3.216H92.0358V12H89.8278V3.216H86.2758V1.44H95.5718ZM99.2219 3.84C100.033 3.84 100.742 4.00533 101.35 4.336C101.969 4.66667 102.449 5.14133 102.79 5.76C103.142 6.37867 103.318 7.12533 103.318 8C103.318 8.864 103.142 9.61067 102.79 10.24C102.449 10.8587 101.969 11.3333 101.35 11.664C100.742 11.9947 100.033 12.16 99.2219 12.16C98.4219 12.16 97.7125 11.9947 97.0939 11.664C96.4752 11.3333 95.9899 10.8587 95.6379 10.24C95.2965 9.61067 95.1259 8.864 95.1259 8C95.1259 7.12533 95.2965 6.37867 95.6379 5.76C95.9899 5.14133 96.4752 4.66667 97.0939 4.336C97.7125 4.00533 98.4219 3.84 99.2219 3.84ZM99.2219 5.472C98.8165 5.472 98.4699 5.568 98.1819 5.76C97.9045 5.94133 97.6912 6.21867 97.5419 6.592C97.3925 6.96533 97.3179 7.43467 97.3179 8C97.3179 8.56533 97.3925 9.03467 97.5419 9.408C97.6912 9.78133 97.9045 10.064 98.1819 10.256C98.4699 10.4373 98.8165 10.528 99.2219 10.528C99.6165 10.528 99.9525 10.4373 100.23 10.256C100.518 10.064 100.737 9.78133 100.886 9.408C101.035 9.03467 101.11 8.56533 101.11 8C101.11 7.43467 101.035 6.96533 100.886 6.592C100.737 6.21867 100.518 5.94133 100.23 5.76C99.9525 5.568 99.6165 5.472 99.2219 5.472ZM112.466 2.096L112.722 3.664C112.679 3.664 112.631 3.664 112.578 3.664C112.535 3.65333 112.487 3.648 112.434 3.648C111.943 3.648 111.575 3.76 111.33 3.984C111.084 4.19733 110.962 4.496 110.962 4.88L110.066 4.512C110.066 4.08533 110.151 3.69067 110.322 3.328C110.492 2.95467 110.743 2.656 111.074 2.432C111.415 2.208 111.82 2.096 112.29 2.096C112.311 2.096 112.338 2.096 112.37 2.096C112.402 2.096 112.434 2.096 112.466 2.096ZM109.842 10.496C110.706 10.496 111.372 10.6827 111.842 11.056C112.311 11.4293 112.546 11.952 112.546 12.624C112.546 13.232 112.37 13.744 112.017 14.16C111.666 14.5867 111.17 14.9067 110.53 15.12C109.9 15.3333 109.17 15.44 108.338 15.44C106.962 15.44 105.954 15.248 105.314 14.864C104.684 14.48 104.37 13.9787 104.37 13.36C104.37 12.9227 104.535 12.5547 104.866 12.256C105.207 11.9573 105.767 11.792 106.546 11.76L106.466 12.016C105.911 11.92 105.484 11.7387 105.186 11.472C104.898 11.1947 104.754 10.816 104.754 10.336C104.754 9.84533 104.94 9.44533 105.314 9.136C105.698 8.816 106.215 8.62933 106.866 8.576L107.826 9.024H107.602C107.143 9.056 106.818 9.152 106.626 9.312C106.444 9.46133 106.354 9.632 106.354 9.824C106.354 10.048 106.439 10.2187 106.61 10.336C106.791 10.4427 107.047 10.496 107.378 10.496H109.842ZM108.354 13.936C108.908 13.936 109.362 13.888 109.714 13.792C110.076 13.696 110.343 13.5733 110.514 13.424C110.695 13.2747 110.786 13.1093 110.786 12.928C110.786 12.7253 110.706 12.56 110.546 12.432C110.386 12.3147 110.098 12.256 109.682 12.256H106.978C106.722 12.256 106.508 12.32 106.338 12.448C106.178 12.576 106.098 12.752 106.098 12.976C106.098 13.2747 106.295 13.5093 106.69 13.68C107.095 13.8507 107.65 13.936 108.354 13.936ZM108.37 3.84C109.116 3.84 109.762 3.952 110.306 4.176C110.86 4.38933 111.282 4.69867 111.57 5.104C111.868 5.50933 112.017 5.99467 112.017 6.56C112.017 7.11467 111.868 7.59467 111.57 8C111.282 8.40533 110.86 8.72 110.306 8.944C109.762 9.15733 109.116 9.264 108.37 9.264C107.186 9.264 106.279 9.024 105.65 8.544C105.031 8.05333 104.722 7.392 104.722 6.56C104.722 5.99467 104.866 5.50933 105.154 5.104C105.452 4.69867 105.874 4.38933 106.418 4.176C106.962 3.952 107.612 3.84 108.37 3.84ZM108.37 5.216C107.943 5.216 107.591 5.33333 107.314 5.568C107.036 5.80267 106.898 6.128 106.898 6.544C106.898 6.96 107.036 7.29067 107.314 7.536C107.591 7.77067 107.943 7.888 108.37 7.888C108.796 7.888 109.143 7.77067 109.41 7.536C109.687 7.29067 109.826 6.96 109.826 6.544C109.826 6.128 109.687 5.80267 109.41 5.568C109.143 5.33333 108.796 5.216 108.37 5.216ZM117.583 12.16C116.74 12.16 116.004 11.9947 115.375 11.664C114.756 11.3333 114.276 10.8587 113.935 10.24C113.593 9.62133 113.423 8.87467 113.423 8C113.423 7.12533 113.593 6.37867 113.935 5.76C114.276 5.14133 114.751 4.66667 115.359 4.336C115.977 4.00533 116.681 3.84 117.471 3.84C118.281 3.84 118.969 4.00533 119.535 4.336C120.1 4.656 120.532 5.09867 120.831 5.664C121.129 6.21867 121.279 6.85333 121.279 7.568C121.279 7.78133 121.273 7.984 121.263 8.176C121.252 8.368 121.236 8.53867 121.215 8.688H114.831V7.168H120.255L119.199 7.552C119.199 6.88 119.044 6.36267 118.735 6C118.436 5.63733 118.009 5.456 117.455 5.456C117.049 5.456 116.697 5.552 116.399 5.744C116.111 5.936 115.892 6.224 115.743 6.608C115.593 6.98133 115.519 7.456 115.519 8.032C115.519 8.59733 115.599 9.06667 115.759 9.44C115.929 9.80267 116.164 10.0747 116.463 10.256C116.772 10.4373 117.14 10.528 117.567 10.528C118.036 10.528 118.415 10.4373 118.703 10.256C118.991 10.0747 119.215 9.824 119.375 9.504L121.119 10.176C120.948 10.592 120.687 10.9493 120.335 11.248C119.993 11.5467 119.583 11.776 119.103 11.936C118.633 12.0853 118.127 12.16 117.583 12.16ZM125.828 1.552V9.392C125.828 9.776 125.924 10.0587 126.116 10.24C126.318 10.4107 126.59 10.496 126.932 10.496C127.198 10.496 127.433 10.4587 127.636 10.384C127.838 10.2987 128.02 10.1867 128.18 10.048L128.532 11.504C128.276 11.7067 127.956 11.8667 127.572 11.984C127.188 12.1013 126.782 12.16 126.356 12.16C125.822 12.16 125.348 12.08 124.932 11.92C124.526 11.76 124.206 11.504 123.972 11.152C123.748 10.8 123.636 10.3307 123.636 9.744V2.16L125.828 1.552ZM128.388 4V5.632H122.164V4H128.388ZM129.996 12V0.495999H132.188V5.36C132.444 4.848 132.796 4.46933 133.244 4.224C133.692 3.968 134.198 3.84 134.764 3.84C135.318 3.84 135.809 3.94667 136.236 4.16C136.673 4.37333 137.014 4.69867 137.26 5.136C137.516 5.56267 137.644 6.10133 137.644 6.752V12H135.452V7.392C135.452 6.69867 135.318 6.224 135.052 5.968C134.785 5.70133 134.444 5.568 134.028 5.568C133.718 5.568 133.42 5.64267 133.132 5.792C132.854 5.93067 132.625 6.16533 132.444 6.496C132.273 6.816 132.188 7.24267 132.188 7.776V12H129.996ZM143.614 12.16C142.771 12.16 142.035 11.9947 141.406 11.664C140.787 11.3333 140.307 10.8587 139.966 10.24C139.625 9.62133 139.454 8.87467 139.454 8C139.454 7.12533 139.625 6.37867 139.966 5.76C140.307 5.14133 140.782 4.66667 141.39 4.336C142.009 4.00533 142.713 3.84 143.502 3.84C144.313 3.84 145.001 4.00533 145.566 4.336C146.131 4.656 146.563 5.09867 146.862 5.664C147.161 6.21867 147.31 6.85333 147.31 7.568C147.31 7.78133 147.305 7.984 147.294 8.176C147.283 8.368 147.267 8.53867 147.246 8.688H140.862V7.168H146.286L145.23 7.552C145.23 6.88 145.075 6.36267 144.766 6C144.467 5.63733 144.041 5.456 143.486 5.456C143.081 5.456 142.729 5.552 142.43 5.744C142.142 5.936 141.923 6.224 141.774 6.608C141.625 6.98133 141.55 7.456 141.55 8.032C141.55 8.59733 141.63 9.06667 141.79 9.44C141.961 9.80267 142.195 10.0747 142.494 10.256C142.803 10.4373 143.171 10.528 143.598 10.528C144.067 10.528 144.446 10.4373 144.734 10.256C145.022 10.0747 145.246 9.824 145.406 9.504L147.15 10.176C146.979 10.592 146.718 10.9493 146.366 11.248C146.025 11.5467 145.614 11.776 145.134 11.936C144.665 12.0853 144.158 12.16 143.614 12.16ZM149.168 12V4H151.072L151.216 5.568C151.429 5.01333 151.738 4.58667 152.144 4.288C152.56 3.98933 153.077 3.84 153.696 3.84C153.877 3.84 154.042 3.856 154.192 3.888C154.341 3.92 154.464 3.96267 154.56 4.016L154.304 5.856C154.197 5.81333 154.064 5.78133 153.904 5.76C153.754 5.73867 153.557 5.728 153.312 5.728C152.992 5.728 152.682 5.808 152.384 5.968C152.085 6.11733 151.84 6.352 151.648 6.672C151.456 6.98133 151.36 7.376 151.36 7.856V12H149.168Z" fill="white"/>
</svg>
