<svg width="126" height="48" viewBox="0 0 126 48" fill="none" xmlns="http://www.w3.org/2000/svg">
<rect width="126" height="48" rx="4" fill="#A53DFF"/>
<path d="M29.232 18.28C30.192 18.28 31.0347 18.4453 31.76 18.776C32.4853 19.1067 33.104 19.5973 33.616 20.248L32.384 21.672C31.9467 21.1173 31.4667 20.712 30.944 20.456C30.432 20.1893 29.8347 20.056 29.152 20.056C28.704 20.056 28.3307 20.1147 28.032 20.232C27.744 20.3493 27.5307 20.504 27.392 20.696C27.264 20.888 27.2 21.1013 27.2 21.336C27.2 21.624 27.312 21.8693 27.536 22.072C27.76 22.264 28.144 22.424 28.688 22.552L30.656 23C31.7013 23.2347 32.448 23.5867 32.896 24.056C33.3547 24.5147 33.584 25.112 33.584 25.848C33.584 26.5413 33.4027 27.1387 33.04 27.64C32.6773 28.1307 32.1707 28.5093 31.52 28.776C30.8693 29.032 30.1227 29.16 29.28 29.16C28.544 29.16 27.8667 29.0747 27.248 28.904C26.64 28.7227 26.096 28.4773 25.616 28.168C25.136 27.8587 24.736 27.5013 24.416 27.096L25.664 25.608C25.9093 25.9493 26.2133 26.2533 26.576 26.52C26.9387 26.7867 27.3493 27 27.808 27.16C28.2773 27.3093 28.768 27.384 29.28 27.384C29.7173 27.384 30.0853 27.336 30.384 27.24C30.6933 27.1333 30.9227 26.9893 31.072 26.808C31.232 26.616 31.312 26.3867 31.312 26.12C31.312 25.8427 31.216 25.608 31.024 25.416C30.8427 25.2133 30.5013 25.0587 30 24.952L27.856 24.472C27.2373 24.3227 26.704 24.1307 26.256 23.896C25.8187 23.6507 25.4827 23.3413 25.248 22.968C25.024 22.584 24.912 22.1307 24.912 21.608C24.912 20.9787 25.0827 20.4133 25.424 19.912C25.7653 19.4107 26.256 19.016 26.896 18.728C27.5467 18.4293 28.3253 18.28 29.232 18.28ZM39.9151 23.896C39.9151 23.4373 39.7818 23.08 39.5151 22.824C39.2591 22.568 38.9178 22.44 38.4911 22.44C38.0965 22.44 37.7498 22.5413 37.4511 22.744C37.1525 22.9467 36.9338 23.2827 36.7951 23.752L34.9231 23.176C35.1045 22.472 35.4991 21.9067 36.1071 21.48C36.7258 21.0533 37.5525 20.84 38.5871 20.84C39.2911 20.84 39.9045 20.952 40.4271 21.176C40.9498 21.3893 41.3551 21.7147 41.6431 22.152C41.9418 22.5893 42.0911 23.1387 42.0911 23.8V27.048C42.0911 27.4533 42.2831 27.656 42.6671 27.656C42.8485 27.656 43.0191 27.6293 43.1791 27.576L43.0511 28.936C42.7738 29.0747 42.4271 29.144 42.0111 29.144C41.6378 29.144 41.3018 29.08 41.0031 28.952C40.7045 28.824 40.4698 28.632 40.2991 28.376C40.1285 28.1093 40.0431 27.7787 40.0431 27.384V27.32L40.4271 27.256C40.3631 27.6613 40.1871 28.008 39.8991 28.296C39.6111 28.5733 39.2591 28.7867 38.8431 28.936C38.4378 29.0853 38.0165 29.16 37.5791 29.16C37.0351 29.16 36.5658 29.08 36.1711 28.92C35.7765 28.7493 35.4725 28.504 35.2591 28.184C35.0458 27.864 34.9391 27.4693 34.9391 27C34.9391 26.4027 35.1311 25.9173 35.5151 25.544C35.8991 25.16 36.4485 24.8987 37.1631 24.76L40.1711 24.152L40.1551 25.512L38.2351 25.896C37.8725 25.9707 37.5951 26.072 37.4031 26.2C37.2218 26.3173 37.1311 26.5147 37.1311 26.792C37.1311 27.0587 37.2271 27.2613 37.4191 27.4C37.6218 27.5387 37.8618 27.608 38.1391 27.608C38.3631 27.608 38.5818 27.5813 38.7951 27.528C39.0085 27.4747 39.2005 27.3893 39.3711 27.272C39.5418 27.1547 39.6751 26.9947 39.7711 26.792C39.8671 26.5893 39.9151 26.344 39.9151 26.056V23.896ZM51.5626 21L48.3306 29.496C48.0746 30.2213 47.7866 30.7973 47.4666 31.224C47.1573 31.6507 46.7946 31.96 46.3786 32.152C45.9733 32.344 45.488 32.44 44.9226 32.44C44.5066 32.44 44.1226 32.3867 43.7706 32.28C43.4293 32.184 43.1306 32.056 42.8746 31.896L43.3386 30.312C43.5413 30.472 43.7546 30.584 43.9786 30.648C44.2026 30.7227 44.4586 30.76 44.7466 30.76C45.0453 30.76 45.3013 30.696 45.5146 30.568C45.7386 30.44 45.9253 30.184 46.0746 29.8L46.3466 29.112L45.4666 27.032L43.0186 21H45.4506L46.9706 25.8L47.3866 27.4L47.8826 25.704L49.3386 21H51.5626ZM66.5886 18.44V29H64.3806V18.44H66.5886ZM59.7246 18.44V29H57.5166V18.44H59.7246ZM65.5326 22.776V24.552H58.6206V22.776H65.5326ZM72.7546 29.16C71.912 29.16 71.176 28.9947 70.5466 28.664C69.928 28.3333 69.448 27.8587 69.1066 27.24C68.7653 26.6213 68.5946 25.8747 68.5946 25C68.5946 24.1253 68.7653 23.3787 69.1066 22.76C69.448 22.1413 69.9226 21.6667 70.5306 21.336C71.1493 21.0053 71.8533 20.84 72.6426 20.84C73.4533 20.84 74.1413 21.0053 74.7066 21.336C75.272 21.656 75.704 22.0987 76.0026 22.664C76.3013 23.2187 76.4506 23.8533 76.4506 24.568C76.4506 24.7813 76.4453 24.984 76.4346 25.176C76.424 25.368 76.408 25.5387 76.3866 25.688H70.0026V24.168H75.4266L74.3706 24.552C74.3706 23.88 74.216 23.3627 73.9066 23C73.608 22.6373 73.1813 22.456 72.6266 22.456C72.2213 22.456 71.8693 22.552 71.5706 22.744C71.2826 22.936 71.064 23.224 70.9146 23.608C70.7653 23.9813 70.6906 24.456 70.6906 25.032C70.6906 25.5973 70.7706 26.0667 70.9306 26.44C71.1013 26.8027 71.336 27.0747 71.6346 27.256C71.944 27.4373 72.312 27.528 72.7386 27.528C73.208 27.528 73.5866 27.4373 73.8746 27.256C74.1626 27.0747 74.3866 26.824 74.5466 26.504L76.2906 27.176C76.12 27.592 75.8586 27.9493 75.5066 28.248C75.1653 28.5467 74.7546 28.776 74.2746 28.936C73.8053 29.0853 73.2986 29.16 72.7546 29.16ZM80.4683 17.496V26.536C80.4683 26.9093 80.5323 27.1707 80.6603 27.32C80.7883 27.4693 81.0016 27.544 81.3003 27.544C81.4816 27.544 81.6309 27.5333 81.7483 27.512C81.8656 27.48 82.0149 27.4373 82.1963 27.384L82.0043 28.824C81.8229 28.9307 81.5936 29.0107 81.3163 29.064C81.0496 29.128 80.7829 29.16 80.5163 29.16C79.7376 29.16 79.1669 28.9733 78.8043 28.6C78.4523 28.216 78.2763 27.608 78.2763 26.776V17.496H80.4683ZM85.5776 17.496V26.536C85.5776 26.9093 85.6416 27.1707 85.7696 27.32C85.8976 27.4693 86.111 27.544 86.4096 27.544C86.591 27.544 86.7403 27.5333 86.8576 27.512C86.975 27.48 87.1243 27.4373 87.3056 27.384L87.1136 28.824C86.9323 28.9307 86.703 29.0107 86.4256 29.064C86.159 29.128 85.8923 29.16 85.6256 29.16C84.847 29.16 84.2763 28.9733 83.9136 28.6C83.5616 28.216 83.3856 27.608 83.3856 26.776V17.496H85.5776ZM92.175 20.84C92.9857 20.84 93.695 21.0053 94.303 21.336C94.9217 21.6667 95.4017 22.1413 95.743 22.76C96.095 23.3787 96.271 24.1253 96.271 25C96.271 25.864 96.095 26.6107 95.743 27.24C95.4017 27.8587 94.9217 28.3333 94.303 28.664C93.695 28.9947 92.9857 29.16 92.175 29.16C91.375 29.16 90.6657 28.9947 90.047 28.664C89.4283 28.3333 88.943 27.8587 88.591 27.24C88.2497 26.6107 88.079 25.864 88.079 25C88.079 24.1253 88.2497 23.3787 88.591 22.76C88.943 22.1413 89.4283 21.6667 90.047 21.336C90.6657 21.0053 91.375 20.84 92.175 20.84ZM92.175 22.472C91.7697 22.472 91.423 22.568 91.135 22.76C90.8577 22.9413 90.6443 23.2187 90.495 23.592C90.3457 23.9653 90.271 24.4347 90.271 25C90.271 25.5653 90.3457 26.0347 90.495 26.408C90.6443 26.7813 90.8577 27.064 91.135 27.256C91.423 27.4373 91.7697 27.528 92.175 27.528C92.5697 27.528 92.9057 27.4373 93.183 27.256C93.471 27.064 93.6897 26.7813 93.839 26.408C93.9883 26.0347 94.063 25.5653 94.063 25C94.063 24.4347 93.9883 23.9653 93.839 23.592C93.6897 23.2187 93.471 22.9413 93.183 22.76C92.9057 22.568 92.5697 22.472 92.175 22.472ZM100.425 18.44V22.28L100.153 25.592H98.3931L98.1211 22.28V18.44H100.425ZM99.2731 26.68C99.6891 26.68 100.02 26.792 100.265 27.016C100.51 27.24 100.633 27.5387 100.633 27.912C100.633 28.296 100.51 28.6 100.265 28.824C100.02 29.0373 99.6891 29.144 99.2731 29.144C98.8571 29.144 98.5265 29.0373 98.2811 28.824C98.0358 28.6 97.9131 28.296 97.9131 27.912C97.9131 27.5387 98.0358 27.24 98.2811 27.016C98.5265 26.792 98.8571 26.68 99.2731 26.68Z" fill="white"/>
</svg>
